<?xml version="1.0" encoding="UTF-8"?>
<svg width="700pt" height="700pt" version="1.1" viewBox="0 0 700 700" xmlns="http://www.w3.org/2000/svg" xmlns:xlink="http://www.w3.org/1999/xlink">
 <defs>
  <symbol id="l" overflow="visible">
   <path d="m37.516-2.25c-1.9297 1.0117-3.9453 1.7734-6.0469 2.2812-2.0938 0.50781-4.2812 0.76562-6.5625 0.76562-6.793 0-12.18-1.8984-16.156-5.7031-3.9688-3.8008-5.9531-8.957-5.9531-15.469 0-6.5195 1.9844-11.68 5.9531-15.484 3.9766-3.8008 9.3633-5.7031 16.156-5.7031 2.2812 0 4.4688 0.25781 6.5625 0.76562 2.1016 0.51172 4.1172 1.2656 6.0469 2.2656v8.4531c-1.9492-1.332-3.8711-2.3047-5.7656-2.9219-1.8984-0.625-3.8906-0.9375-5.9844-0.9375-3.7617 0-6.7188 1.2031-8.875 3.6094-2.1484 2.4062-3.2188 5.7266-3.2188 9.9531 0 4.2109 1.0703 7.5156 3.2188 9.9219 2.1562 2.4062 5.1133 3.6094 8.875 3.6094 2.0938 0 4.0859-0.30469 5.9844-0.92188 1.8945-0.625 3.8164-1.5977 5.7656-2.9219z"/>
  </symbol>
  <symbol id="b" overflow="visible">
   <path d="m27.453-22.281c-0.85547-0.40625-1.7109-0.70312-2.5625-0.89062-0.84375-0.19531-1.6953-0.29688-2.5469-0.29688-2.5234 0-4.4609 0.80859-5.8125 2.4219-1.3555 1.6172-2.0312 3.9297-2.0312 6.9375v14.109h-9.7969v-30.625h9.7969v5.0312c1.25-2.0078 2.6914-3.4727 4.3281-4.3906 1.6328-0.91406 3.5859-1.375 5.8594-1.375 0.33203 0 0.6875 0.015625 1.0625 0.046875 0.38281 0.023438 0.94141 0.078125 1.6719 0.17188z"/>
  </symbol>
  <symbol id="a" overflow="visible">
   <path d="m35.281-15.391v2.7812h-22.891c0.23828 2.3047 1.0664 4.0273 2.4844 5.1719 1.4258 1.1484 3.4141 1.7188 5.9688 1.7188 2.0508 0 4.1562-0.30078 6.3125-0.90625 2.1641-0.61328 4.3906-1.5391 6.6719-2.7812v7.5469c-2.3125 0.875-4.6328 1.5391-6.9531 1.9844-2.3125 0.44531-4.625 0.67188-6.9375 0.67188-5.543 0-9.8516-1.4062-12.922-4.2188-3.0742-2.8203-4.6094-6.7734-4.6094-11.859 0-5 1.5039-8.9258 4.5156-11.781 3.0195-2.8633 7.1758-4.2969 12.469-4.2969 4.8125 0 8.6602 1.4492 11.547 4.3438 2.8945 2.8984 4.3438 6.7734 4.3438 11.625zm-10.062-3.2656c0-1.8516-0.54688-3.3477-1.6406-4.4844-1.0859-1.1445-2.5-1.7188-4.25-1.7188-1.8984 0-3.4375 0.53906-4.625 1.6094-1.1797 1.0625-1.9141 2.5938-2.2031 4.5938z"/>
  </symbol>
  <symbol id="h" overflow="visible">
   <path d="m18.438-13.781c-2.043 0-3.5781 0.35156-4.6094 1.0469-1.0312 0.6875-1.5469 1.7031-1.5469 3.0469 0 1.2422 0.41016 2.2148 1.2344 2.9219 0.83203 0.69922 1.9883 1.0469 3.4688 1.0469 1.8438 0 3.3906-0.66016 4.6406-1.9844 1.2578-1.3203 1.8906-2.9727 1.8906-4.9531v-1.125zm14.953-3.6875v17.469h-9.875v-4.5469c-1.3125 1.8672-2.793 3.2266-4.4375 4.0781-1.6367 0.84375-3.6328 1.2656-5.9844 1.2656-3.168 0-5.7422-0.92578-7.7188-2.7812-1.9805-1.8516-2.9688-4.2539-2.9688-7.2031 0-3.5938 1.2344-6.2266 3.7031-7.9062 2.4688-1.6758 6.3477-2.5156 11.641-2.5156h5.7656v-0.76562c0-1.5508-0.60938-2.6875-1.8281-3.4062s-3.125-1.0781-5.7188-1.0781c-2.0938 0-4.0469 0.21484-5.8594 0.64062-1.8047 0.41797-3.4766 1.043-5.0156 1.875v-7.4688c2.0938-0.50781 4.1953-0.89453 6.3125-1.1562 2.1133-0.25781 4.2266-0.39062 6.3438-0.39062 5.5195 0 9.5039 1.0898 11.953 3.2656 2.457 2.1797 3.6875 5.7188 3.6875 10.625z"/>
  </symbol>
  <symbol id="g" overflow="visible">
   <path d="m15.391-39.328v8.7031h10.094v7h-10.094v12.984c0 1.4297 0.28125 2.3906 0.84375 2.8906 0.57031 0.5 1.6953 0.75 3.375 0.75h5.0312v7h-8.3906c-3.8672 0-6.6055-0.80469-8.2188-2.4219-1.6172-1.6133-2.4219-4.3516-2.4219-8.2188v-12.984h-4.875v-7h4.875v-8.7031z"/>
  </symbol>
  <symbol id="f" overflow="visible">
   <path d="m25.547-26.141v-16.406h9.8438v42.547h-9.8438v-4.4375c-1.3555 1.8125-2.8438 3.1406-4.4688 3.9844-1.6172 0.83203-3.4922 1.25-5.625 1.25-3.7734 0-6.8711-1.5-9.2969-4.5-2.4297-3-3.6406-6.8594-3.6406-11.578 0-4.7266 1.2109-8.5859 3.6406-11.578 2.4258-3 5.5234-4.5 9.2969-4.5 2.1133 0 3.9844 0.42188 5.6094 1.2656 1.6328 0.84375 3.1289 2.1641 4.4844 3.9531zm-6.4531 19.828c2.0938 0 3.6914-0.76562 4.7969-2.2969 1.1016-1.5312 1.6562-3.7539 1.6562-6.6719 0-2.9141-0.55469-5.1406-1.6562-6.6719-1.1055-1.5312-2.7031-2.2969-4.7969-2.2969-2.0859 0-3.6797 0.76562-4.7812 2.2969-1.1055 1.5312-1.6562 3.7578-1.6562 6.6719 0 2.918 0.55078 5.1406 1.6562 6.6719 1.1016 1.5312 2.6953 2.2969 4.7812 2.2969z"/>
  </symbol>
  <symbol id="e" overflow="visible">
   <path d="m21-6.3125c2.0938 0 3.6914-0.76562 4.7969-2.2969 1.1016-1.5312 1.6562-3.7539 1.6562-6.6719 0-2.9141-0.55469-5.1406-1.6562-6.6719-1.1055-1.5312-2.7031-2.2969-4.7969-2.2969s-3.7031 0.77344-4.8281 2.3125c-1.1172 1.5312-1.6719 3.75-1.6719 6.6562 0 2.8984 0.55469 5.1172 1.6719 6.6562 1.125 1.543 2.7344 2.3125 4.8281 2.3125zm-6.5-19.828c1.3438-1.7891 2.832-3.1094 4.4688-3.9531 1.6445-0.84375 3.5352-1.2656 5.6719-1.2656 3.7695 0 6.8672 1.5 9.2969 4.5 2.4258 2.9922 3.6406 6.8516 3.6406 11.578 0 4.7188-1.2148 8.5781-3.6406 11.578-2.4297 3-5.5273 4.5-9.2969 4.5-2.1367 0-4.0273-0.42188-5.6719-1.2656-1.6367-0.85156-3.125-2.1758-4.4688-3.9688v4.4375h-9.7969v-42.547h9.7969z"/>
  </symbol>
  <symbol id="d" overflow="visible">
   <path d="m0.6875-30.625h9.7812l8.2344 20.781 7-20.781h9.7969l-12.891 33.531c-1.293 3.4062-2.8047 5.7852-4.5312 7.1406-1.7188 1.3633-3.9922 2.0469-6.8125 2.0469h-5.6562v-6.4375h3.0625c1.6562 0 2.8594-0.26562 3.6094-0.79688 0.75781-0.52344 1.3516-1.4648 1.7812-2.8281l0.26562-0.85938z"/>
  </symbol>
  <symbol id="c" overflow="visible">
   <path d="m29.922-7.4375h-16.469l-2.5938 7.4375h-10.578l15.109-40.828h12.562l15.109 40.828h-10.578zm-13.844-7.5781h11.188l-5.5781-16.234z"/>
  </symbol>
  <symbol id="k" overflow="visible">
   <path d="m4.375-11.922v-18.703h9.8438v3.0625c0 1.6562-0.011719 3.7422-0.03125 6.25-0.011719 2.5-0.015625 4.1719-0.015625 5.0156 0 2.4609 0.0625 4.2305 0.1875 5.3125 0.125 1.0859 0.34375 1.875 0.65625 2.375 0.39453 0.63672 0.91406 1.125 1.5625 1.4688 0.65625 0.34375 1.3984 0.51562 2.2344 0.51562 2.0391 0 3.6445-0.78125 4.8125-2.3438 1.1641-1.5703 1.75-3.75 1.75-6.5312v-15.125h9.7969v30.625h-9.7969v-4.4375c-1.4805 1.793-3.043 3.1172-4.6875 3.9688-1.6484 0.84375-3.4648 1.2656-5.4531 1.2656-3.543 0-6.2422-1.082-8.0938-3.25-1.8438-2.1758-2.7656-5.332-2.7656-9.4688z"/>
  </symbol>
  <symbol id="j" overflow="visible">
   <path d="m35.5-18.656v18.656h-9.8438v-14.281c0-2.6328-0.0625-4.4531-0.1875-5.4531-0.11719-1.0078-0.32031-1.75-0.60938-2.2188-0.38672-0.64453-0.90625-1.1445-1.5625-1.5-0.65625-0.35156-1.4023-0.53125-2.2344-0.53125-2.043 0-3.6484 0.79297-4.8125 2.375-1.168 1.5742-1.75 3.7578-1.75 6.5469v15.062h-9.7969v-30.625h9.7969v4.4844c1.4688-1.7891 3.0312-3.1094 4.6875-3.9531 1.6641-0.84375 3.5-1.2656 5.5-1.2656 3.5391 0 6.2266 1.0859 8.0625 3.25 1.832 2.168 2.75 5.3203 2.75 9.4531z"/>
  </symbol>
  <symbol id="i" overflow="visible">
   <path d="m5.1406-40.828h17.469c5.1953 0 9.1875 1.1562 11.969 3.4688 2.7812 2.3047 4.1719 5.5859 4.1719 9.8438 0 4.293-1.3906 7.5898-4.1719 9.8906-2.7812 2.3047-6.7734 3.4531-11.969 3.4531h-6.9375v14.172h-10.531zm10.531 7.625v11.406h5.8281c2.0391 0 3.6133-0.49219 4.7188-1.4844 1.1133-1 1.6719-2.4102 1.6719-4.2344 0-1.8203-0.55859-3.2227-1.6719-4.2031-1.1055-0.98828-2.6797-1.4844-4.7188-1.4844z"/>
  </symbol>
 </defs>
 <g>
  <path d="m411.1 253.61h-110.37c-20.496 0-37.113 16.617-37.113 37.113v11.719c0 20.496 16.617 37.113 37.113 37.113h110.37c20.496 0 37.113-16.617 37.113-37.113v-11.719c0-20.5-16.617-37.113-37.113-37.113zm2.2891 26.043c2.8477 0 5.5391 0.70312 7.8867 1.9531h-15.785c2.3555-1.2461 5.0469-1.9531 7.8984-1.9531zm-12.203 5.2109h24.406c0.94922 0.97656 1.7734 2.0703 2.457 3.2539h-29.312c0.67188-1.1836 1.5-2.2773 2.4492-3.2539zm-3.9023 6.5078h32.215c0.33594 1.043 0.57422 2.1289 0.70703 3.2539l-33.637 0.003906c0.13281-1.1289 0.375-2.2109 0.71484-3.2578zm-99.355-11.719c2.8516 0 5.5391 0.70312 7.8906 1.9531h-15.777c2.3477-1.2461 5.0352-1.9531 7.8867-1.9531zm-12.199 5.2109h24.398c0.95312 0.97656 1.7812 2.0703 2.457 3.2539h-29.312c0.67578-1.1836 1.5039-2.2773 2.457-3.2539zm-3.9062 6.5078h32.215c0.33984 1.043 0.58203 2.1289 0.70703 3.2539h-33.633c0.12891-1.125 0.37109-2.207 0.71094-3.2539zm16.105 22.141c-3.3164 0-6.4023-0.94922-9.0117-2.6055h18.023c-2.6055 1.6562-5.6953 2.6055-9.0117 2.6055zm12.805-5.8633h-25.605c-0.85938-0.98828-1.6094-2.082-2.2109-3.2539h30.027c-0.60547 1.1719-1.3516 2.2656-2.2109 3.2539zm3.5-6.5117h-32.605c-0.30078-1.0508-0.48438-2.1328-0.57422-3.2539h33.754c-0.089844 1.1211-0.27344 2.207-0.57422 3.2539zm63.977 12.336c0 5.293-4.293 9.5859-9.5859 9.5859h-25.098c-5.2969 0-9.5859-4.293-9.5859-9.5859v-4.3047h44.27zm35.18 0.039063c-3.3164 0-6.4102-0.94922-9.0117-2.6055h18.016c-2.5977 1.6562-5.6914 2.6055-9.0039 2.6055zm12.797-5.8633h-25.598c-0.85938-0.98828-1.6094-2.082-2.2188-3.2539h30.031c-0.60547 1.1719-1.3555 2.2656-2.2148 3.2539zm3.5078-6.5117h-32.605c-0.30078-1.0508-0.49219-2.1328-0.57422-3.2539h33.75c-0.085937 1.1211-0.27344 2.207-0.57031 3.2539z"/>
  <path d="m494.54 297.21c0 5.7539-4.6641 10.418-10.414 10.418-5.7539 0-10.418-4.6641-10.418-10.418 0-5.7539 4.6641-10.418 10.418-10.418 5.75 0 10.414 4.6641 10.414 10.418"/>
  <path d="m236.04 297.77c0 5.7539-4.6641 10.418-10.418 10.418-5.75 0-10.414-4.6641-10.414-10.418s4.6641-10.418 10.414-10.418c5.7539 0 10.418 4.6641 10.418 10.418"/>
  <path d="m509.6 259.01c-16.012-59.473-70.398-103.38-134.86-103.38h-16.492v-9.0781c11.156-1.2969 19.848-10.793 19.848-22.293 0-12.379-10.07-22.449-22.449-22.449-12.383 0-22.457 10.074-22.457 22.449 0 11.199 8.2461 20.508 18.984 22.184v9.1914l-15.629-0.003907c-64.508 0-118.93 43.969-134.9 103.51-10.648 1.8086-18.758 11.078-18.758 22.246v18.262c-6.7852 0.44531-12.156 6.0898-12.156 12.984v38.348c0 19.574 15.871 35.449 35.449 35.449h19.348c5.3984 4.582 11.57 8.5859 18.523 12.016 19.98 9.8672 45.543 14.215 70.684 16.074l-3.2891 9.8672c-10.129 1.1797-19.941 4.4141-28.781 9.5586-10.234 5.957-18.957 14.316-25.336 24.242h13.801c11.629-14.121 29.238-23.145 48.922-23.145h70.316c19.68 0 37.297 9.0156 48.922 23.145h13.801c-0.53516-0.84375-1.0938-1.668-1.6641-2.4805-12.48-17.805-32.031-29.195-53.359-31.422l-3.2109-9.6367c25.684-1.7852 51.945-6.1172 72.383-16.203 26.262-12.957 41.352-34.047 45.766-64.137 9.3906-2.7305 16.266-11.395 16.266-21.676v-31.25c-0.003906-11.477-8.5781-20.949-19.668-22.375zm-303.42 114.39c-12.383 0-22.422-10.039-22.422-22.422v-32.148c2.0312 7.1406 7.4883 12.832 14.484 15.191 2.2266 15.449 7.2539 28.543 15.16 39.379zm297.04-59.031c0 36.75-13.004 60.281-40.926 74.062-29.145 14.383-72.309 16.227-106.65 16.227-34.348 0-77.512-1.8438-106.65-16.227-1.3047-0.64844-2.5742-1.3164-3.8125-2.0039h80.926c1.7969 4.5742 6.2422 7.8125 11.453 7.8125h29.227c6.7969 0 12.301-5.5039 12.301-12.301v-4.918c0-6.7891-5.5039-12.301-12.301-12.301h-29.23c-5.5312 0-10.211 3.6562-11.754 8.6836h-97.852c-13.473-13.969-19.887-33.242-19.887-59.031v-19.094c0-70.844 57.637-128.48 128.48-128.48h15.629v0.12109h6.0742v-0.12109h16.492c70.848 0 128.48 57.637 128.48 128.48z"/>
  <use x="70" y="728" xlink:href="#l"/>
  <use x="111.097656" y="728" xlink:href="#b"/>
  <use x="138.714844" y="728" xlink:href="#a"/>
  <use x="176.695312" y="728" xlink:href="#h"/>
  <use x="214.484375" y="728" xlink:href="#g"/>
  <use x="241.253906" y="728" xlink:href="#a"/>
  <use x="279.234375" y="728" xlink:href="#f"/>
  <use x="338.816406" y="728" xlink:href="#e"/>
  <use x="378.902344" y="728" xlink:href="#d"/>
  <use x="434.902344" y="728" xlink:href="#c"/>
  <use x="478.242188" y="728" xlink:href="#b"/>
  <use x="505.859375" y="728" xlink:href="#k"/>
  <use x="545.726562" y="728" xlink:href="#j"/>
  <use x="605.089844" y="728" xlink:href="#i"/>
  <use x="646.132812" y="728" xlink:href="#b"/>
  <use x="673.75" y="728" xlink:href="#a"/>
 </g>
</svg>
